<svg class="img-fluid" id="outputsvg" xmlns="http://www.w3.org/2000/svg" style="transform: matrix(1, 0, 0, 1, 0, 0); transform-origin: 50% 50%; cursor: move; max-height: none; transition: transform 200ms ease-in-out;" width="502" height="343" viewBox="0 0 5020 3430"><g id="l6tgdjS8uIBCsSkZCRWHIGo" fill="rgb(177,17,22)" style="transform: none; transform-origin: 50% 50%;"><g style="transform: none;"><path id="p18SOwjft7" d="M1480 2570 l0 -650 -259 0 c-273 0 -370 -10 -486 -50 -252 -87 -452 -272 -545 -504 -44 -110 -61 -205 -62 -341 0 -260 87 -463 274 -640 99 -94 202 -155 336 -201 118 -40 226 -54 435 -54 l157 0 0 154 0 154 -192 4 c-176 4 -200 7 -275 32 -186 61 -323 196 -379 375 -24 73 -28 224 -10 309 45 215 205 374 432 432 67 17 111 20 326 20 l248 0 0 -72 c0 -123 19 -288 45 -386 90 -339 324 -573 650 -648 96 -23 318 -25 410 -5 286 63 496 230 619 492 152 322 132 695 -50 952 -19 26 -34 49 -34 52 0 3 282 4 628 3 l627 -3 43 -23 c70 -37 100 -129 68 -206 -31 -75 -126 -123 -401 -205 -350 -103 -488 -165 -590 -266 -87 -86 -118 -153 -123 -271 -2 -50 1 -115 7 -143 35 -166 155 -279 356 -338 53 -15 121 -18 563 -21 l502 -3 0 150 0 150 -487 3 c-454 3 -491 4 -532 22 -48 21 -80 74 -81 134 0 99 84 156 345 232 415 121 530 171 645 277 99 91 133 163 138 294 2 52 -1 121 -8 152 -33 162 -147 280 -329 345 -41 15 -164 17 -1203 19 l-1158 3 0 -150 0 -150 208 0 c178 0 217 -3 263 -19 195 -67 314 -194 366 -391 22 -86 22 -262 -1 -350 -56 -220 -213 -382 -421 -435 -33 -8 -102 -15 -155 -15 -170 0 -270 40 -386 155 -80 79 -139 187 -168 307 -17 66 -35 232 -36 316 l0 42 315 0 315 0 0 155 0 155 -315 0 -315 0 0 650 0 650 -160 0 -160 0 0 -650z"></path></g></g></svg>
